<?xml version="1.0" encoding="UTF-8" standalone="no"?>
<!DOCTYPE svg PUBLIC "-//W3C//DTD SVG 1.1//EN" "http://www.w3.org/Graphics/SVG/1.1/DTD/svg11.dtd">
<svg width="100%" height="100%" viewBox="0 0 1024 1024" version="1.1" xmlns="http://www.w3.org/2000/svg" xmlns:xlink="http://www.w3.org/1999/xlink" xml:space="preserve" style="fill-rule:evenodd;clip-rule:evenodd;stroke-linecap:round;stroke-linejoin:round;stroke-miterlimit:1.5;">
    <g id="logo">
        <g id="back">
            <g id="back-shadow" transform="matrix(1,0,0,1,-11.5,24.5)">
                <path d="M812.848,267.938L369.943,267.938L369.943,699.653L65.3,699.653L65.3,267.938L64.761,267.938L65.3,267.47L65.3,267.4L65.381,267.4L361.039,10.824L812.848,10.824L812.848,267.938Z" style="fill-opacity:0.501961;"/>
            </g>
            <g id="back1">
                <g transform="matrix(1,0,0,1.00572,-0.210567,-3.07109)">
                    <rect x="65.511" y="268.932" width="304.643" height="429.794" style="fill:rgb(220,73,60);"/>
                </g>
                <g transform="matrix(1.24549,0,0,1,-200.171,0)">
                    <path d="M813.348,267.938L212.712,267.938L450.593,10.824L813.348,10.824L813.348,267.938Z" style="fill:rgb(255,83,67);"/>
                </g>
            </g>
        </g>
        <g id="go-mascot">
            <g id="body-shadow" transform="matrix(1,0,0,1,-12.5,23.5)">
                <path d="M261.057,379.779L261.526,372.529L279.792,332.099L393.922,250.169L434.439,221.238L520.186,198.348L593.927,222.392L597.996,226.186C607.33,211.619 623.661,201.958 642.23,201.958C671.206,201.958 694.73,225.482 694.73,254.458C694.73,271.713 686.388,287.035 673.519,296.608L696.779,318.297L724.675,389.77L744.472,702.407L632.272,701.175L388.33,701.353L281.338,538.814L269.522,482.823C265.246,483.95 260.758,484.55 256.13,484.55C227.154,484.55 203.63,461.025 203.63,432.05C203.63,403.074 227.154,379.55 256.13,379.55C257.791,379.55 259.435,379.627 261.057,379.779Z" style="fill-opacity:0.501961;"/>
            </g>
            <g id="body">
                <g id="ears">
                    <g transform="matrix(1.09126,0,0,1.05845,-25.4334,-27.3107)">
                        <ellipse cx="258.018" cy="433.995" rx="48.11" ry="49.601" style="fill:rgb(241,216,165);"/>
                    </g>
                    <g transform="matrix(1.09126,0,0,1.05845,360.667,-204.903)">
                        <ellipse cx="258.018" cy="433.995" rx="48.11" ry="49.601" style="fill:rgb(241,216,165);"/>
                    </g>
                </g>
                <path d="M632.272,701.175L393.922,250.169L279.792,332.099L261.526,372.529L257.946,427.967L281.338,538.814L388.33,701.353L632.272,701.175Z" style="fill:rgb(223,189,140);"/>
                <path d="M393.922,250.169L632.272,701.175L744.472,702.407L724.675,389.77L696.779,318.297L593.927,222.392L520.186,198.348L434.439,221.238L393.922,250.169Z" style="fill:rgb(250,227,180);"/>
            </g>
            <g id="eyes">
                <g id="left-eye">
                    <g transform="matrix(1.24739,0,0,1.44491,-96.4886,-167.896)">
                        <ellipse cx="371.976" cy="374.009" rx="58.121" ry="50.176" style="fill:white;"/>
                    </g>
                    <g transform="matrix(1.10476,0,0,1.05421,-46.2079,-20.0648)">
                        <ellipse cx="408.672" cy="360.348" rx="18.104" ry="18.971"/>
                    </g>
                    <g transform="matrix(1.14455,0,0,1.15764,-62.312,-56.9824)">
                        <ellipse cx="417.592" cy="358.154" rx="6.553" ry="6.479" style="fill:rgb(170,170,170);"/>
                    </g>
                </g>
                <g id="right-eye">
                    <g transform="matrix(1.24739,0,0,1.44491,60.5114,-252.396)">
                        <ellipse cx="371.976" cy="374.009" rx="58.121" ry="50.176" style="fill:white;"/>
                    </g>
                    <g transform="matrix(1.04286,0,0,1.07447,-28.4332,-28.1608)">
                        <ellipse cx="571.413" cy="282.908" rx="22.055" ry="21.406"/>
                    </g>
                    <g transform="matrix(1.01934,0,0,1.05153,-12.3943,-14.5857)">
                        <ellipse cx="580.325" cy="274.521" rx="8.829" ry="8.559" style="fill:rgb(170,170,170);"/>
                    </g>
                </g>
            </g>
            <g id="teeth">
                <g transform="matrix(-0.58125,0.813725,0.813725,0.58125,434.551,-224.374)">
                    <path d="M513.248,463.049C517.805,470.941 515.101,481.032 507.209,485.588C499.317,490.145 489.226,487.441 484.669,479.549L470.553,452.088L495.812,429.044L513.248,463.049Z" style="fill:white;"/>
                </g>
                <path d="M500.474,427.393L526.219,471.985C520.637,471.361 515.515,467.9 513.02,462.416L495.484,428.462L500.474,427.393Z" style="fill:rgb(234,226,209);"/>
                <path d="M513.248,463.049C517.805,470.941 515.101,481.032 507.209,485.588C499.317,490.145 489.226,487.441 484.669,479.549L470.553,452.088L495.812,429.044L513.248,463.049Z" style="fill:white;"/>
                <path d="M474.467,448.517L497.085,487.693C492.072,487.116 487.386,484.255 484.669,479.549L470.553,452.088L474.467,448.517Z" style="fill:rgb(234,226,209);"/>
            </g>
            <path id="mouth" d="M476.308,390.097C476.308,390.097 451.476,406.293 443.908,419.756C430.16,444.212 458.123,465.199 474.251,449.701C481.995,442.259 488.401,434.224 498.021,429.154C508.123,423.829 518.412,422.725 528.954,420.663C550.905,416.369 549.796,381.424 521.882,378.623C506.515,377.08 491.292,381.748 476.308,390.097Z" style="fill:rgb(177,144,97);stroke:rgb(177,144,97);stroke-width:1px;"/>
            <g id="nose" transform="matrix(0.962149,-0.503662,0.375106,0.716567,-127.166,343.894)">
                <ellipse cx="473.852" cy="391.289" rx="27.336" ry="20.872"/>
            </g>
        </g>
        <g id="front">
            <g id="front-shadow" transform="matrix(1,0,0,1,-11.5,24.5)">
                <path d="M65.3,699.6L980.653,699.6L732.136,948.117L365.657,948.117L65.3,699.6ZM917.644,386.912L918.738,386.912L981.519,699.583L730.393,699.583L730.393,579.106L559.953,579.106L559.953,386.859L917.633,386.859L917.644,386.912Z" style="fill-opacity:0.501961;"/>
            </g>
            <g id="front1">
                <g transform="matrix(0.993087,0,0,1.00193,5.54565,-2.35417)">
                    <path d="M982.767,700.583L729.893,700.583L729.893,388.515L919.549,388.515L982.767,700.583Z" style="fill:rgb(220,73,60);"/>
                </g>
                <g transform="matrix(1.10475,0,0,1.0083,-58.6576,-4.80943)">
                    <path d="M919.401,579.106L559.953,579.106L559.953,388.443L883.718,388.443L919.401,579.106Z" style="fill:rgb(255,83,67);"/>
                </g>
                <g transform="matrix(-0.990565,1.23722e-16,-1.05582e-16,-0.845329,1044.87,1542.27)">
                    <path d="M988.897,996.851L64.826,996.851L315.71,702.863L685.68,702.863L988.897,996.851Z" style="fill:rgb(255,83,67);"/>
                </g>
            </g>
        </g>
    </g>
</svg>
